<svg width="22" height="21" fill="none" xmlns="http://www.w3.org/2000/svg"><path d="M17.891 8.018c0-3.292 2.776-4.885 2.883-4.991C19.173.797 16.824.478 15.97.372 13.941.159 11.912 1.54 10.951 1.54 9.883 1.54 8.28.372 6.573.372c-2.242 0-4.271 1.274-5.445 3.292-2.35 4.035-.641 9.983 1.601 13.275 1.175 1.593 2.456 3.398 4.164 3.292 1.709-.106 2.35-1.062 4.378-1.062 2.029 0 2.563 1.062 4.378 1.062s2.99-1.593 4.057-3.186c1.282-1.805 1.816-3.61 1.816-3.717-.107-.106-3.63-1.38-3.63-5.31z" fill="#1D1D1D"/></svg>