<svg width="50" height="38" fill="none" xmlns="http://www.w3.org/2000/svg"><g clip-path="url(#clip0)"><path d="M48.982 37.467v.099h.094a.1.1 0 00.05-.013.043.043 0 00.02-.037.041.041 0 00-.02-.037.092.092 0 00-.05-.012h-.094zm.095-.07c.048 0 .085.011.112.032.026.021.039.05.039.087a.1.1 0 01-.032.076.155.155 0 01-.089.036l.124.14h-.096l-.115-.139h-.038v.138h-.08v-.37h.175zm-.025.498a.323.323 0 00.29-.19.31.31 0 00-.29-.43.321.321 0 00-.227.09.3.3 0 00-.067.098.294.294 0 00-.024.12c0 .044.008.084.024.122a.291.291 0 00.067.099.32.32 0 00.227.09zm0-.71a.417.417 0 01.382.244.373.373 0 010 .31.413.413 0 01-.382.243.424.424 0 01-.385-.244.373.373 0 01-.032-.154.392.392 0 01.253-.367.424.424 0 01.164-.032zm-38.276-1.423c0-.704.473-1.283 1.245-1.283.738 0 1.236.554 1.236 1.283 0 .73-.498 1.283-1.236 1.283-.772 0-1.245-.578-1.245-1.283zm3.322 0v-2.004h-.892v.487c-.283-.361-.712-.588-1.296-.588-1.15 0-2.052.881-2.052 2.105 0 1.225.902 2.105 2.052 2.105.584 0 1.013-.226 1.296-.587v.486h.892v-2.004zm30.144 0c0-.704.473-1.283 1.245-1.283.739 0 1.236.554 1.236 1.283 0 .73-.497 1.283-1.236 1.283-.772 0-1.245-.578-1.245-1.283zm3.323 0v-3.614h-.893v2.097c-.283-.361-.713-.588-1.296-.588-1.15 0-2.052.881-2.052 2.105 0 1.225.901 2.105 2.052 2.105.583 0 1.013-.226 1.296-.587v.486h.893v-2.004zM25.17 34.438c.574 0 .944.352 1.038.972H24.08c.096-.579.455-.972 1.09-.972zm.017-.78c-1.202 0-2.043.855-2.043 2.104 0 1.275.875 2.105 2.103 2.105.618 0 1.184-.15 1.682-.561l-.437-.646a1.99 1.99 0 01-1.194.419c-.574 0-1.098-.26-1.227-.982h3.047c.009-.108.018-.218.018-.335-.01-1.25-.8-2.105-1.949-2.105zm10.771 2.104c0-.704.473-1.283 1.245-1.283.738 0 1.236.554 1.236 1.283 0 .73-.498 1.283-1.236 1.283-.772 0-1.245-.578-1.245-1.283zm3.322 0v-2.004h-.892v.487c-.284-.361-.712-.588-1.296-.588-1.15 0-2.052.881-2.052 2.105 0 1.225.902 2.105 2.052 2.105.584 0 1.012-.226 1.296-.587v.486h.892v-2.004zm-8.36 0c0 1.216.867 2.105 2.19 2.105.617 0 1.03-.134 1.475-.478l-.428-.705c-.335.236-.687.361-1.074.361-.712-.008-1.236-.511-1.236-1.283 0-.772.524-1.275 1.236-1.283.387 0 .739.126 1.074.36l.428-.704c-.446-.343-.858-.478-1.475-.478-1.323 0-2.19.89-2.19 2.105zm11.502-2.105c-.515 0-.85.236-1.082.588v-.487h-.884v4.008h.893V35.52c0-.663.292-1.032.875-1.032.181 0 .37.026.558.101l.275-.821a1.94 1.94 0 00-.635-.11zm-23.913.42c-.43-.277-1.02-.42-1.673-.42-1.04 0-1.708.487-1.708 1.284 0 .653.498 1.056 1.415 1.182l.422.059c.489.067.72.192.72.419 0 .31-.326.487-.936.487-.617 0-1.063-.193-1.364-.42l-.42.679c.489.352 1.107.52 1.776.52 1.184 0 1.871-.545 1.871-1.308 0-.705-.54-1.073-1.433-1.199l-.42-.06c-.387-.05-.696-.124-.696-.393 0-.294.291-.47.78-.47.524 0 1.031.194 1.28.344l.386-.704zm11.51-.42c-.515 0-.85.236-1.08.588v-.487h-.885v4.008h.892V35.52c0-.663.292-1.032.875-1.032.181 0 .37.026.558.101l.276-.821a1.941 1.941 0 00-.636-.11zm-7.613.101h-1.459v-1.216h-.902v1.216h-.832v.797h.832v1.828c0 .93.37 1.484 1.425 1.484.387 0 .833-.117 1.116-.31l-.257-.747a1.68 1.68 0 01-.79.227c-.446 0-.592-.269-.592-.671v-1.811h1.46v-.797zM9.07 37.766v-2.515c0-.948-.618-1.585-1.614-1.594-.524-.008-1.064.151-1.442.714-.283-.445-.73-.714-1.356-.714-.438 0-.866.126-1.201.595v-.494h-.893v4.008h.9v-2.222c0-.696.395-1.065 1.005-1.065.593 0 .892.377.892 1.057v2.23h.902v-2.222c0-.696.412-1.065 1.004-1.065.61 0 .901.377.901 1.057v2.23h.902z" fill="#4D4D4D"/><path d="M49.532 24.436v-.585h-.156l-.18.402-.18-.402h-.158v.585h.111v-.441l.17.381h.114l.17-.382v.442h.11zm-.991 0v-.485h.2v-.099h-.51v.099h.2v.485h.11z" fill="#F79410"/><path d="M31.77 26.955H18.252V3.217h13.52v23.738z" fill="#FF5F00"/><path d="M19.117 15.084c0-4.815 2.308-9.104 5.901-11.869A15.615 15.615 0 0015.47-.012C6.936-.012.02 6.746.02 15.084c0 8.338 6.917 15.097 15.45 15.097 3.605 0 6.921-1.207 9.55-3.228-3.594-2.764-5.902-7.053-5.902-11.869z" fill="#EB001B"/><path d="M50.004 15.084c0 8.338-6.917 15.097-15.45 15.097a15.62 15.62 0 01-9.55-3.228c3.594-2.764 5.902-7.053 5.902-11.869 0-4.815-2.308-9.104-5.902-11.869a15.62 15.62 0 019.55-3.227c8.533 0 15.45 6.758 15.45 15.096z" fill="#F79E1B"/></g><defs><clipPath id="clip0"><path fill="#fff" d="M0 0h50v38H0z"/></clipPath></defs></svg>