<svg width="24" height="14" fill="none" xmlns="http://www.w3.org/2000/svg"><g clip-path="url(#clip0)"><path d="M0 .195v13.659h24V.195H0z" fill="#00247D"/><path d="M0 .195l24 13.659L0 .195zm24 0L0 13.854 24 .195z" fill="#fff"/><path d="M24 .195L0 13.854M0 .195l24 13.659L0 .195z" stroke="#fff" stroke-width="2.4"/><path d="M0 .195l24 13.659L0 .195zm24 0L0 13.854 24 .195z" fill="#fff"/><path d="M24 .195L0 13.854M0 .195l24 13.659L0 .195z" stroke="#CF142B" stroke-width="1.6"/><path d="M12 .195v13.659V.195zM0 7.025h24H0z" fill="#fff"/><path d="M0 7.024h24M12 .195v13.659V.195z" stroke="#fff" stroke-width="4"/><path d="M12 .195v13.659V.195zM0 7.025h24H0z" fill="#fff"/><path d="M0 7.024h24M12 .195v13.659V.195z" stroke="#CF142B" stroke-width="2.4"/></g><defs><clipPath id="clip0"><path fill="#fff" transform="translate(0 .195)" d="M0 0h24v13.659H0z"/></clipPath></defs></svg>