<svg width="64" height="65" fill="none" xmlns="http://www.w3.org/2000/svg"><path d="M32 64.998c17.673 0 32-14.327 32-32 0-17.674-14.327-32-32-32-17.673 0-32 14.326-32 32 0 17.673 14.327 32 32 32z" fill="#FFE1E1"/><path d="M37.413 53.85h-10.8l.96-9.653h8.853l.987 9.654z" fill="#4D4D4D"/><path d="M52.16 46.01H12.373c-.8 0-1.467-.588-1.467-1.28V20.435c0-.72.667-1.28 1.467-1.28h39.813c.8 0 1.467.586 1.467 1.28v24.293c-.027.72-.667 1.28-1.493 1.28z" fill="#000"/><path d="M51.466 19.557h-38.4c-.774 0-1.414.587-1.414 1.334v25.146h41.254V20.891c-.027-.747-.64-1.334-1.44-1.334z" stroke="#1D1D1D" stroke-width="5.644"/><path d="M40.08 55.13H24.025c-.347 0-.613-.24-.613-.56v-.586c0-.293.266-.56.613-.56h16.027c.346 0 .613.24.613.56v.587c.027.32-.267.56-.587.56z" fill="#1D1D1D"/><path d="M51.733 20.038l-38.16 25.226h37.493c.774 0 1.387-.533 1.387-1.2v-22.96c0-.453-.293-.853-.72-1.066z" fill="#fff"/><path d="M51.066 19.904h-37.6c-.773 0-1.387.534-1.387 1.2v22.96c0 .667.614 1.2 1.387 1.2h.08l38.187-25.226a1.746 1.746 0 00-.667-.134z" fill="#fff"/><path d="M18.534 31.104h-3.44v12.934h3.44V31.104zm5.146 5.36h-3.44v7.573h3.44v-7.573zm5.12-3.76h-3.44v11.334h3.44V32.704zm5.121-1.6h-3.44v12.934h3.44V31.104zm5.146 4.08h-3.44v8.854h3.44v-8.854zm5.121-5.68h-3.44v14.534h3.44V29.504zm5.146-1.414h-3.44v15.948h3.44V28.09zM30.48 23.424h-3.174v.72h3.174v-.72zm-5.2 0H15.227v.72H25.28v-.72z" fill="#EB5757"/><path opacity=".5" d="M13.174 44.544l-1.014-1.013 7.92-7.92 7.014 3.2 8.426-4.4 6.8 1.573 9.067-6.667.853 1.147-9.6 7.093-6.906-1.626-8.587 4.48-6.773-3.093-7.2 7.226z" fill="#0E3753"/><path d="M15.227 26.438H25.36 15.227zm1.679 1.786h10.267-10.267zm11.548 0h2.667-2.667zm-1.148-1.786h5.974-5.974z" stroke="#BAB9B9" stroke-width="2.027"/><path d="M41.653 24.144a.9.9 0 01-.907.907.9.9 0 01-.906-.907.9.9 0 01.906-.906.9.9 0 01.907.906z" fill="#D71B29"/><path d="M21.52 36.757a1.24 1.24 0 01-1.226 1.227c-.694 0-1.227-.56-1.227-1.227 0-.666.56-1.226 1.227-1.226.693 0 1.226.56 1.226 1.226zm15.333-1.573c0 .694-.56 1.227-1.226 1.227a1.24 1.24 0 01-1.227-1.227c0-.693.56-1.226 1.227-1.226.666 0 1.226.533 1.226 1.226zm13.707-3.707c0 .694-.56 1.227-1.227 1.227-.693 0-1.227-.56-1.227-1.227 0-.693.56-1.226 1.227-1.226.693 0 1.227.533 1.227 1.226z" fill="#0E3753"/><path d="M45.253 24.144a.9.9 0 01-.907.907.9.9 0 01-.906-.907.9.9 0 01.907-.906.9.9 0 01.906.906z" fill="#002E3F"/><path d="M48.694 24.144a.9.9 0 01-.906.907.9.9 0 01-.907-.907.9.9 0 01.907-.906.9.9 0 01.906.906z" fill="#FFB700"/><path d="M44.32 35.53a6.607 6.607 0 017.12 6.054 6.607 6.607 0 01-6.053 7.12 6.607 6.607 0 01-7.12-6.053 6.589 6.589 0 016.053-7.12z" stroke="#fff" stroke-width="8.683"/><path d="M44.32 35.53a6.607 6.607 0 017.12 6.054 6.607 6.607 0 01-6.053 7.12 6.607 6.607 0 01-7.12-6.053 6.589 6.589 0 016.053-7.12z" stroke="#1D1D1D" stroke-width="3.074"/><path d="M53.84 47.931c.32.267.24.907-.186 1.387-.427.506-1.013.666-1.333.4l-3.147-2.667c-.32-.267-.24-.907.187-1.387.426-.506 1.013-.666 1.333-.4l3.147 2.667z" fill="#fff"/><path d="M61.786 53.93c.614.508.614 1.52-.026 2.267-.614.72-1.627.907-2.214.374l-6-5.093c-.613-.507-.613-1.52.027-2.267.613-.72 1.627-.907 2.24-.373l5.973 5.093z" fill="#E93F3F"/><path d="M53.574 49.211l-3.52-2.987 3.52 2.987z" stroke="#EB5757" stroke-width=".861"/><path opacity=".56" d="M61.734 55.078c.133-.16-1.36-1.574-3.307-3.174-1.947-1.6-3.627-2.8-3.76-2.64-.134.16 1.36 1.573 3.306 3.173 1.974 1.6 3.654 2.774 3.76 2.64z" fill="#fff"/></svg>