<svg width="64" height="65" fill="none" xmlns="http://www.w3.org/2000/svg"><g clip-path="url(#clip0)"><path d="M32 64.998c-17.683 0-32-14.318-32-32 0-17.683 14.317-32 32-32s32 14.317 32 32c0 17.682-14.317 32-32 32z" fill="#FFE1E1"/><path d="M26.097 25.88c-7.007 0-12.69 4.47-12.69 10.014 0 4 2.98 7.448 7.283 9.048-.083.166-.166.36-.248.525-.828 1.407-2.07 2.482-3.531 3.2 3.227.193 6.206-.773 8.193-2.814.33.027.662.027.993.027 7.007 0 12.69-4.496 12.69-10.013 0-5.518-5.656-9.987-12.69-9.987z" fill="#4D4D4D"/><path d="M34.841 43.15c-7.862-.166-14.151-5.242-14.151-11.476 0-1.932.607-3.752 1.682-5.352a16.386 16.386 0 013.724-.442c7.007 0 12.69 4.47 12.69 10.014.028 2.842-1.49 5.407-3.945 7.255z" fill="#1D1D1D"/><path d="M36.938 17.66c8.055 0 14.566 5.13 14.566 11.476 0 4.579-3.421 8.524-8.331 10.372.082.193.193.414.303.607.965 1.627 2.372 2.841 4.055 3.669-3.724.276-7.172-.855-9.434-3.2-.386.027-.773.055-1.159.055-8.055 0-14.565-5.131-14.565-11.476 0-6.372 6.537-11.503 14.565-11.503z" fill="#fff"/><path d="M51.532 29.163c-.028 4.58-3.421 8.497-8.331 10.345.082.193.193.414.303.607.965 1.627 2.372 2.841 4.055 3.669-3.724.276-7.172-.855-9.434-3.2-.386.027-.773.055-1.159.055-8.027 0-14.538-5.131-14.565-11.448h29.13v-.028z" fill="#FFFAF9"/><path d="M41.131 29.356c0 1.131.91 2.042 2.042 2.042 1.13 0 2.041-.91 2.041-2.042 0-1.13-.91-2.041-2.041-2.041-1.131-.028-2.042.91-2.042 2.041zm-6.262 0c0 1.131.91 2.042 2.041 2.042 1.131 0 2.041-.91 2.041-2.042 0-1.13-.91-2.041-2.04-2.041-1.132-.028-2.042.91-2.042 2.041zm-6.289.001c0 1.13.91 2.041 2.041 2.041 1.131 0 2.041-.91 2.041-2.041 0-1.131-.91-2.042-2.041-2.042-1.131-.027-2.041.91-2.041 2.042z" fill="#E23A3A"/><path d="M45.214 29.163H41.16a2.045 2.045 0 012.042-1.876c1.048 0 1.903.828 2.013 1.876zm-6.289 0H34.87a2.045 2.045 0 012.041-1.876 2.02 2.02 0 012.014 1.876zm-6.263 0h-4.055a2.045 2.045 0 012.041-1.876c1.049 0 1.931.828 2.014 1.876z" fill="#EB5757"/></g><defs><clipPath id="clip0"><path fill="#fff" transform="translate(0 .998)" d="M0 0h64v64H0z"/></clipPath></defs></svg>