<svg width="56" height="65" fill="none" xmlns="http://www.w3.org/2000/svg"><g clip-path="url(#clip0)"><path d="M28 58.747C12.675 58.747.267 46.642.267 31.69.267 16.741 12.675 4.636 28 4.636c15.325 0 27.733 12.105 27.733 27.055S43.325 58.747 28 58.747z" fill="#FFE1E1"/><path d="M33.666 54.805V39.318c0-1.562-1.315-2.845-2.917-2.845h-4.734c-1.601 0-2.916 1.283-2.916 2.845v15.487h10.567z" fill="#fff"/><path d="M36.678 47.761H22.309v7.137h14.369v-7.137z" fill="#4D4D4D"/><path d="M37.204 49.114H21.76v11.709h15.444V49.114z" fill="#EB5757"/><path d="M37.204 49.114H21.76v1.12h15.444v-1.12z" fill="#EB5757"/><path d="M36.654 47.761H29.48v1.33h7.173v-1.33z" fill="#1D1D1D"/><path d="M37.203 50.234h-7.722v10.589h7.722v-10.59z" fill="#EB5757"/><path d="M29.481 49.114v1.12h7.722v-1.12h-7.722z" fill="#EB5757"/><path d="M35.555 52.426a.736.736 0 01-.742.723.736.736 0 01-.74-.723c0-.396.334-.723.74-.723.407 0 .742.327.742.723zm-.718 8.094h-.765v1.189h.765v-1.19zm9.493 0h-.765v1.189h.765v-1.19z" fill="#1D1D1D"/><path d="M44.33 61.662c0 1.12-2.296 2.03-5.117 2.03s-5.116-.91-5.116-2.03c0-1.12 2.295-2.029 5.116-2.029 2.821 0 5.116.91 5.116 2.03z" fill="#1D1D1D"/><path d="M44.329 60.566c0 1.12-2.295 2.03-5.116 2.03-2.822 0-5.117-.91-5.117-2.03 0-1.12 2.296-2.03 5.117-2.03 2.82-.022 5.116.91 5.116 2.03z" fill="#D1ECFB"/><path d="M43.23 60.263c0 .723-1.818 1.306-4.041 1.306-2.224 0-4.04-.583-4.04-1.306 0-.723 1.816-1.306 4.04-1.306 2.247 0 4.04.583 4.04 1.306zm-8.942-1.633h-.765v1.19h.765v-1.19z" fill="#1D1D1D"/><path d="M43.756 58.63h-.765v1.19h.765v-1.19z" fill="#1D1D1D"/><path d="M43.756 59.773c0 1.12-2.295 2.03-5.117 2.03-2.82 0-5.116-.91-5.116-2.03 0-1.12 2.295-2.03 5.116-2.03 2.822 0 5.117.91 5.117 2.03z" fill="#1D1D1D"/><path d="M43.756 58.677c0 1.12-2.295 2.03-5.117 2.03-2.82 0-5.116-.91-5.116-2.03 0-1.12 2.295-2.03 5.116-2.03 2.822-.023 5.117.91 5.117 2.03z" fill="#D1ECFB"/><path d="M42.68 58.397c0 .723-1.817 1.306-4.04 1.306-2.224 0-4.041-.583-4.041-1.306 0-.723 1.793-1.306 4.04-1.306 2.224-.023 4.04.56 4.04 1.306z" fill="#1D1D1D"/><path d="M35.005 56.834h-.765v1.19h.765v-1.19zm9.492 0h-.765v1.19h.765v-1.19z" fill="#1D1D1D"/><path d="M44.497 57.977c0 1.12-2.295 2.03-5.116 2.03-2.821 0-5.116-.91-5.116-2.03 0-1.12 2.295-2.029 5.116-2.029 2.821-.023 5.116.886 5.116 2.03z" fill="#1D1D1D"/><path d="M44.497 56.858c0 1.12-2.295 2.029-5.117 2.029-2.82 0-5.116-.91-5.116-2.03 0-1.119 2.295-2.029 5.116-2.029 2.822 0 5.117.91 5.117 2.03z" fill="#D1ECFB"/><path d="M43.397 56.578c0 .723-1.793 1.306-4.04 1.306-2.224 0-4.041-.583-4.041-1.306 0-.723 1.817-1.306 4.04-1.306 2.248 0 4.04.583 4.04 1.306z" fill="#1D1D1D"/><path d="M49.015 59.097c.598 2.589-1.147 5.154-3.92 5.76-2.75.607-5.476-.979-6.073-3.568-.598-2.566 1.147-5.154 3.92-5.76 2.774-.607 5.475 1.002 6.073 3.568z" fill="#8FC4D7"/><path d="M49.9 58.864c0 2.845-2.367 5.154-5.284 5.154s-5.284-2.309-5.284-5.154c0-2.846 2.367-5.155 5.284-5.155 2.94 0 5.284 2.309 5.284 5.154z" fill="#1D1D1D"/><path d="M49.757 58.864c0 2.752-2.295 4.99-5.116 4.99-2.822 0-5.117-2.238-5.117-4.99 0-2.753 2.295-4.992 5.117-4.992 2.82 0 5.116 2.24 5.116 4.992z" fill="#D1ECFB"/><path d="M48.657 58.864c0 2.169-1.817 3.941-4.04 3.941-2.224 0-4.041-1.772-4.041-3.941 0-2.17 1.817-3.942 4.04-3.942 2.248.023 4.04 1.773 4.04 3.942z" fill="#1D1D1D"/><path d="M44.353 61.172a2.654 2.654 0 01-.741-.186 1.928 1.928 0 01-.574-.397l.167-.256.072-.07c.024-.023.048-.023.096-.023.047 0 .095.023.143.07.048.046.12.093.191.14.072.046.167.093.287.163a.92.92 0 00.383.093l.12-1.726c-.144-.046-.312-.093-.455-.163a1.406 1.406 0 01-.407-.233 1.089 1.089 0 01-.407-.863 1.1 1.1 0 01.097-.467c.071-.14.143-.28.287-.396.12-.117.262-.21.454-.28.167-.07.382-.117.621-.117l.024-.466c0-.047.024-.07.048-.117a.185.185 0 01.12-.047h.215l-.048.653c.24.024.43.094.598.187.167.093.31.187.454.327l-.143.21c-.048.07-.096.093-.144.093a.41.41 0 01-.12-.047c-.047-.023-.095-.046-.167-.093-.072-.047-.143-.07-.215-.117a.65.65 0 00-.287-.07l-.12 1.563c.168.047.311.093.479.163.167.047.287.14.43.21.12.093.215.21.31.327.073.14.12.303.12.49 0 .186-.023.373-.095.56a1.428 1.428 0 01-.287.442c-.12.14-.287.234-.478.327s-.407.117-.646.117l-.048.583c0 .046-.023.07-.047.116a.185.185 0 01-.12.047h-.215l.048-.746zm-.55-3.498c0 .093.024.187.048.28.047.07.095.14.167.21.072.07.143.116.24.163.095.047.19.07.286.117l.096-1.47a1.823 1.823 0 00-.383.094.99.99 0 00-.263.163.55.55 0 00-.143.21.574.574 0 00-.048.233zm1.84 2.146a.488.488 0 00-.071-.28 1.334 1.334 0 00-.167-.21 2.124 2.124 0 00-.24-.14c-.095-.047-.19-.07-.31-.117l-.12 1.61a1.85 1.85 0 00.383-.094.861.861 0 00.287-.186.602.602 0 00.167-.257.73.73 0 00.072-.326z" fill="#D1ECFB"/><path d="M45.381 24.298c0 2.845-2.367 5.154-5.284 5.154-2.916 0-5.283-2.309-5.283-5.154 0-2.846 2.367-5.155 5.283-5.155 2.917 0 5.284 2.31 5.284 5.155z" fill="#1D1D1D"/><path d="M45.214 24.298c0 2.752-2.295 4.991-5.116 4.991-2.821 0-5.116-2.239-5.116-4.991s2.295-4.991 5.116-4.991c2.821 0 5.116 2.239 5.116 4.99z" fill="#D1ECFB"/><path d="M44.114 24.298c0 2.169-1.817 3.942-4.04 3.942-2.224 0-4.04-1.773-4.04-3.942 0-2.17 1.816-3.942 4.04-3.942 2.247 0 4.04 1.773 4.04 3.942z" fill="#1D1D1D"/><path d="M39.81 26.607a2.658 2.658 0 01-.741-.187 1.93 1.93 0 01-.574-.396l.168-.257.071-.07c.024-.023.048-.023.096-.023s.096.023.143.07c.048.047.12.093.192.14.071.046.167.093.287.163a.92.92 0 00.382.093l.12-1.726c-.144-.046-.311-.093-.455-.163a1.409 1.409 0 01-.406-.233 1.09 1.09 0 01-.406-.863c0-.163.023-.303.095-.466.072-.14.144-.28.287-.397.12-.117.263-.21.454-.28.168-.07.383-.117.622-.117l.024-.466c0-.047.024-.07.048-.117a.185.185 0 01.12-.046h.214l-.047.653c.239.023.43.093.597.186.168.094.311.187.454.327l-.143.21c-.048.07-.096.093-.143.093-.024 0-.072-.023-.12-.046a1.391 1.391 0 01-.167-.094c-.072-.046-.144-.07-.215-.116a.65.65 0 00-.287-.07l-.12 1.562c.167.047.31.094.478.164.167.046.287.14.43.21.12.093.216.21.311.326.072.14.12.303.12.49 0 .186-.024.373-.096.56a1.43 1.43 0 01-.287.443c-.12.14-.287.233-.478.326-.191.094-.406.117-.645.117l-.048.583c0 .047-.024.07-.048.117a.185.185 0 01-.12.046h-.215l.048-.746zm-.55-3.522c0 .093.024.187.048.28.048.07.096.14.167.21a.86.86 0 00.24.163c.095.047.19.07.286.117l.096-1.47a1.823 1.823 0 00-.383.094.991.991 0 00-.262.163.55.55 0 00-.144.21.81.81 0 00-.048.233zm1.865 2.17a.488.488 0 00-.072-.28 1.228 1.228 0 00-.167-.21 2.091 2.091 0 00-.24-.14c-.095-.047-.19-.07-.31-.117l-.12 1.61a1.9 1.9 0 00.383-.094.862.862 0 00.287-.187.603.603 0 00.167-.256.73.73 0 00.072-.327z" fill="#D1ECFB"/><path d="M51 37.359c0 2.846-2.367 5.154-5.284 5.154s-5.284-2.308-5.284-5.154 2.367-5.154 5.284-5.154c2.916 0 5.283 2.309 5.283 5.154z" fill="#1D1D1D"/><path d="M50.855 37.36c0 2.751-2.295 4.99-5.116 4.99-2.821 0-5.116-2.239-5.116-4.99 0-2.753 2.295-4.992 5.116-4.992 2.821 0 5.116 2.239 5.116 4.991z" fill="#D1ECFB"/><path d="M49.757 37.359c0 2.17-1.817 3.942-4.04 3.942-2.224 0-4.041-1.773-4.041-3.942 0-2.169 1.817-3.942 4.04-3.942 2.248.024 4.04 1.773 4.04 3.942z" fill="#1D1D1D"/><path d="M45.428 39.668a2.655 2.655 0 01-.74-.187 1.93 1.93 0 01-.575-.396l.168-.257.072-.07c.023-.023.047-.023.095-.023s.096.023.144.07c.047.047.12.093.191.14.072.047.167.093.287.163a.92.92 0 00.382.094l.12-1.726c-.144-.047-.31-.094-.454-.164a1.407 1.407 0 01-.407-.233 1.039 1.039 0 01-.287-.35c-.071-.14-.095-.303-.095-.513 0-.163.024-.303.095-.466.072-.14.144-.28.287-.397.12-.117.263-.21.455-.28a1.63 1.63 0 01.621-.116l.024-.467c0-.047.024-.07.048-.116a.185.185 0 01.12-.047h.215l-.048.653c.239.023.43.093.597.187.168.093.311.186.455.326l-.144.21c-.048.07-.095.093-.143.093a.41.41 0 01-.12-.046c-.048-.024-.095-.047-.167-.094-.072-.046-.144-.07-.215-.116a.65.65 0 00-.287-.07l-.12 1.562c.168.047.311.094.478.164.168.046.287.14.43.21.12.093.216.21.312.326.071.14.12.303.12.49 0 .186-.025.373-.096.56a1.43 1.43 0 01-.287.443c-.12.14-.287.233-.479.326-.19.094-.406.117-.645.117l-.048.583c0 .047-.024.07-.048.117a.185.185 0 01-.12.046h-.214l.023-.746zm-.525-3.498c0 .093.023.186.047.28.048.07.096.14.168.21.071.07.143.116.239.163.095.046.191.07.287.116l.095-1.47a1.821 1.821 0 00-.382.094.99.99 0 00-.263.163.55.55 0 00-.144.21.574.574 0 00-.047.233zm1.84 2.145a.488.488 0 00-.071-.28c-.048-.07-.096-.14-.168-.21a2.113 2.113 0 00-.239-.14c-.095-.046-.191-.07-.31-.116l-.12 1.61c.143-.024.263-.047.382-.094a.86.86 0 00.287-.187.6.6 0 00.168-.256.73.73 0 00.071-.327z" fill="#D1ECFB"/><path d="M20.397 41.767c0 2.846-2.367 5.155-5.284 5.155-2.916 0-5.283-2.31-5.283-5.155s2.367-5.155 5.283-5.155c2.917 0 5.284 2.31 5.284 5.155z" fill="#1D1D1D"/><path d="M20.23 41.767c0 2.752-2.295 4.991-5.116 4.991-2.821 0-5.116-2.239-5.116-4.99 0-2.753 2.295-4.992 5.116-4.992 2.821 0 5.116 2.239 5.116 4.991z" fill="#D1ECFB"/><path d="M19.154 41.767c0 2.17-1.817 3.942-4.04 3.942-2.224 0-4.04-1.773-4.04-3.942 0-2.169 1.816-3.942 4.04-3.942 2.223.024 4.04 1.773 4.04 3.942z" fill="#1D1D1D"/><path d="M14.826 44.076a2.654 2.654 0 01-.74-.187 1.928 1.928 0 01-.575-.396l.168-.257.071-.07c.024-.023.048-.023.096-.023s.096.023.143.07c.048.047.12.093.192.14.071.047.167.093.287.163a.91.91 0 00.382.094l.12-1.726c-.144-.047-.311-.094-.455-.164a1.406 1.406 0 01-.406-.233 1.09 1.09 0 01-.406-.863c0-.163.023-.303.095-.466.072-.14.144-.28.287-.397.12-.116.263-.21.454-.28.168-.07.383-.116.622-.116l.024-.467c0-.046.024-.07.048-.116a.185.185 0 01.12-.047h.214l-.047.653c.239.023.43.093.597.187.168.093.311.186.454.326l-.143.21c-.048.07-.096.093-.143.093-.024 0-.072-.023-.12-.046-.048-.024-.096-.047-.167-.094-.072-.046-.144-.07-.215-.116a.65.65 0 00-.287-.07l-.12 1.563c.168.046.31.093.478.163.168.046.287.14.43.21.12.093.216.21.311.326.072.14.12.303.12.49s-.024.373-.096.56a1.428 1.428 0 01-.287.443c-.12.14-.287.233-.478.326-.191.094-.406.117-.645.117l-.048.583c0 .047-.024.07-.048.117a.185.185 0 01-.12.046h-.215l.048-.746zm-.526-3.498c0 .093.024.186.048.28.048.07.096.14.167.21.072.07.144.116.24.163.095.046.19.07.286.116l.096-1.47a1.835 1.835 0 00-.383.094c-.095.047-.19.093-.262.163a.55.55 0 00-.144.21c-.048.047-.048.14-.048.233zm1.841 2.145a.488.488 0 00-.072-.28 1.228 1.228 0 00-.167-.21c-.072-.046-.143-.093-.239-.14-.096-.046-.191-.07-.31-.116l-.12 1.61a1.83 1.83 0 00.382-.094.862.862 0 00.287-.187.602.602 0 00.167-.256.728.728 0 00.072-.327z" fill="#D1ECFB"/><path d="M24.342 16.251c1.865 2.426 1.458 5.784-.885 7.51s-5.762 1.143-7.626-1.26c-1.865-2.425-1.459-5.783.884-7.51 2.367-1.725 5.762-1.165 7.627 1.26z" fill="#1D1D1D"/><path d="M24.222 16.321c1.793 2.356 1.578 5.481-.526 7.02-2.104 1.54-5.26.863-7.053-1.469-1.793-2.355-1.554-5.48.526-7.02 2.104-1.54 5.26-.863 7.053 1.47z" fill="#D1ECFB"/><path d="M23.433 16.927c1.411 1.843 1.244 4.315-.406 5.528-1.65 1.213-4.136.677-5.547-1.166-1.41-1.843-1.243-4.315.407-5.528 1.625-1.212 4.112-.7 5.546 1.166z" fill="#1D1D1D"/><path d="M21.736 21.219c-.216.117-.43.21-.67.233a2.272 2.272 0 01-.693-.023l-.024-.327c0-.023 0-.046.024-.093 0-.023.024-.047.048-.07.024-.023.072-.023.143-.023a.92.92 0 01.24.023c.095 0 .19 0 .31-.023.12-.024.24-.047.359-.117l-1.028-1.54a2.952 2.952 0 01-.43.117c-.144.024-.288.047-.455.024a1.545 1.545 0 01-.43-.14c-.144-.07-.287-.21-.43-.397-.096-.14-.192-.28-.24-.443a1.154 1.154 0 01-.047-.49 1.9 1.9 0 01.143-.49c.072-.163.215-.303.383-.42l-.287-.42c-.024-.046-.024-.069-.024-.116 0-.046.024-.07.047-.093l.168-.117.382.56c.192-.093.383-.163.55-.186.192-.024.359 0 .55.023l.024.256c0 .07 0 .14-.048.164-.024.023-.048.023-.12.023h-.19c-.072 0-.144.023-.24.023a1.179 1.179 0 00-.263.094l.933 1.4c.143-.047.31-.094.454-.117.143-.047.31-.047.454-.047.144 0 .287.047.43.117.144.07.288.186.407.373.12.163.215.35.287.513.072.186.096.373.072.536a.98.98 0 01-.144.513 1.363 1.363 0 01-.382.444l.358.513c.024.046.024.07.024.116 0 .047-.024.07-.048.094l-.167.116-.43-.583zm-2.678-2.682a.901.901 0 00.215.21c.072.046.168.07.24.093a.504.504 0 00.262 0c.096-.023.192-.023.287-.047l-.884-1.306a1.097 1.097 0 00-.216.28 1.293 1.293 0 00-.095.28c0 .093 0 .187.024.257.048.07.095.14.167.233zm2.75.816a.673.673 0 00-.24-.21.492.492 0 00-.263-.07h-.287a6.333 6.333 0 01-.31.07l.98 1.446a1.1 1.1 0 00.215-.28c.048-.093.072-.21.096-.303 0-.093 0-.21-.048-.326 0-.117-.048-.21-.144-.327z" fill="#D1ECFB"/><path d="M25.178 3.027c2.056-2.263 5.356-2.706 7.34-.98s1.937 4.968-.143 7.23c-2.056 2.263-5.356 2.706-7.34.98-1.985-1.75-1.913-4.968.143-7.23z" fill="#1D1D1D"/><path d="M25.273 3.097C27.282.904 30.294.345 31.992 1.814c1.721 1.493 1.482 4.478-.526 6.67-2.009 2.193-4.997 2.753-6.719 1.283-1.697-1.492-1.482-4.478.526-6.67z" fill="#D1ECFB"/><path d="M25.8 3.516c1.578-1.726 3.944-2.169 5.283-1.002 1.34 1.166 1.172 3.521-.406 5.247-1.578 1.726-3.945 2.17-5.284 1.003-1.339-1.19-1.147-3.522.407-5.248z" fill="#1D1D1D"/><path d="M30.103 3.936c.143.164.24.35.31.537.049.21.073.396.049.606l-.311.117c-.024 0-.048.023-.072 0-.024 0-.048-.024-.072-.024a.176.176 0 01-.047-.116c0-.07 0-.14-.024-.21 0-.093-.024-.163-.048-.28a.583.583 0 00-.168-.28l-1.314 1.306c.071.117.12.234.167.373.048.117.072.257.072.397s-.024.28-.072.42c-.048.14-.167.303-.31.466-.12.117-.24.233-.383.327a1.19 1.19 0 01-.455.163c-.167.023-.31.023-.478 0-.167-.023-.31-.117-.454-.233l-.359.35c-.024.023-.071.046-.12.07-.047 0-.07 0-.095-.024l-.143-.116.502-.49a1.242 1.242 0 01-.24-.467c-.047-.163-.047-.326-.047-.49l.239-.093c.072-.023.12-.023.167 0 .024.024.024.047.048.094 0 .046.024.093.024.163.024.07.024.14.048.21.024.07.072.14.12.21l1.195-1.19c-.072-.116-.12-.256-.168-.373a1.077 1.077 0 01-.095-.396c-.024-.14 0-.28.048-.42.047-.14.143-.304.287-.467.143-.163.286-.28.454-.373.167-.093.334-.163.502-.21a.918.918 0 01.502 0c.167.023.335.117.478.233l.454-.443c.024-.023.072-.046.12-.07.048 0 .072 0 .095.024l.144.116-.55.583zM27.88 7.015c.071-.093.12-.163.167-.233a.811.811 0 00.048-.233c0-.07 0-.164-.024-.234s-.048-.163-.096-.233l-1.123 1.12c.095.07.19.116.287.14a.597.597 0 00.286 0 .726.726 0 00.24-.094c.071-.093.143-.163.215-.233zm.454-2.682c-.072.093-.144.163-.168.256-.023.094-.047.164-.047.257s.024.163.047.256c.024.094.072.164.096.257l1.243-1.213a.511.511 0 00-.31-.116.7.7 0 00-.311 0 1.48 1.48 0 00-.287.116.5.5 0 00-.263.187z" fill="#D1ECFB"/><path d="M33.737 28.543c-.741 0-1.387.49-1.578 1.143a4.539 4.539 0 00-.813-.117v-1.096c0-.887-.74-1.61-1.65-1.61-.908 0-1.649.723-1.649 1.61v1.096h-.765v-2.542c0-.887-.741-1.61-1.65-1.61-.908 0-1.65.723-1.65 1.61v2.565c-.262 0-.525.047-.788.094v-7.627c0-.887-.741-1.61-1.65-1.61-.909 0-1.65.723-1.65 1.61v15.72l-.765-.747v-3.218c0-1.306-1.1-2.38-2.438-2.38h-.909v2.963h-.024v3.942l5.451 5.317v-.116a4.342 4.342 0 002.941 1.143h6.957c2.367 0 4.28-1.866 4.28-4.175V30.152c0-.886-.741-1.61-1.65-1.61z" fill="#fff"/></g><defs><clipPath id="clip0"><path fill="#fff" transform="translate(.267 .998)" d="M0 0h55.467v64H0z"/></clipPath></defs></svg>