<svg width="62" height="65" fill="none" xmlns="http://www.w3.org/2000/svg"><g clip-path="url(#clip0)"><path d="M31 63.913C13.907 63.913.067 49.838.067 32.455S13.907.998 31 .998s30.933 14.074 30.933 31.457c0 17.383-13.84 31.458-30.933 31.458z" fill="#FFE1E1"/><path d="M42.573 15.072v-3.39c-1.626.109-2.906 1.492-2.906 3.173 0 1.763 1.386 3.173 3.12 3.173 1.653 0 3.013-1.302 3.12-2.956h-3.334z" fill="#4D4D4D"/><path d="M45.747 14.286c0-1.302-1.04-2.387-2.347-2.387v2.387h2.347z" fill="#1D1D1D"/><path d="M48.252 38.313c-.267.813-.667 1.545-1.227 2.142l4.187 5.966c2.107-1.871 3.653-4.393 4.213-7.295l-7.173-.813z" fill="#4D4D4D"/><path d="M43.96 30.773c2.453.516 4.293 2.604 4.533 5.18l7.174.813v-.243c0-6.834-5.147-12.448-11.734-13.045v7.295h.027z" fill="#1D1D1D"/><path d="M38.547 32.59a5.858 5.858 0 013.066-1.816v-7.322c-3.813.352-7.146 2.413-9.28 5.396l6.214 3.743zm6.559 9.275a5.588 5.588 0 01-2.32.515c-3.173 0-5.76-2.63-5.76-5.857 0-.651.133-1.275.32-1.871l-6.213-3.716a13.073 13.073 0 00-1.254 5.587c0 7.24 5.76 13.125 12.907 13.125 2.373 0 4.587-.65 6.507-1.817l-4.187-5.966z" fill="#4D4D4D"/><path d="M17.587 41.54c-1.547 1.573-1.547 4.15 0 5.75l4.587 4.663c1.546 1.573 4.08 1.573 5.653 0l4.587-4.664c1.546-1.573 1.546-4.149 0-5.749l-4.587-4.664c-1.547-1.573-4.08-1.573-5.653 0l-4.587 4.664z" fill="#fff"/><path d="M17.373 30.394h-.933V44.66h.933c1.36 0 2.48-1.14 2.48-2.523v-9.22c0-1.383-1.12-2.522-2.48-2.522zm21.601 7.892c.667.678.667 1.762 0 2.413l-8.747 8.895a1.639 1.639 0 01-2.373 0 1.706 1.706 0 010-2.413l8.747-8.895c.64-.651 1.706-.651 2.373 0zm-.16-5.886a1.706 1.706 0 010 2.415l-8.747 8.894a1.639 1.639 0 01-2.373 0c-.667-.678-.667-1.762 0-2.413L36.44 32.4c.64-.678 1.707-.678 2.374 0zm-.161-5.91a1.706 1.706 0 010 2.413l-8.746 8.895a1.639 1.639 0 01-2.374 0 1.706 1.706 0 010-2.414l8.747-8.895c.667-.678 1.733-.678 2.373 0z" fill="#fff"/><path d="M28.44 61.5V45.091c0-1.654-1.333-3.01-2.96-3.01h-4.8c-1.626 0-2.96 1.356-2.96 3.01V61.5h10.72z" fill="#fff"/><path d="M33.08 14.964H22.228c-1.306 0-2.373 1.084-2.373 2.413v26.414c0 1.329 1.067 2.413 2.373 2.413h10.854c1.306 0 2.373-1.084 2.373-2.413V17.377c0-1.329-1.067-2.413-2.373-2.413z" fill="#4D4D4D"/><path d="M25.613 16.835h4.08c.107 0 .214.108.214.217 0 .108-.107.217-.214.217h-4.08c-.106 0-.213-.109-.213-.217 0-.136.08-.217.213-.217zm2.027 27.58a1.389 1.389 0 01-1.386-1.41c0-.787.613-1.41 1.387-1.41.773 0 1.386.623 1.386 1.41 0 .786-.613 1.41-1.386 1.41zm6.774-24.705h-13.52v20.366h13.52V19.709z" fill="#fff"/><path d="M27.64 42.055a.964.964 0 00-.96.977c0 .542.426.976.96.976.533 0 .96-.434.96-.976a.964.964 0 00-.96-.977z" fill="#1D1D1D"/><path d="M33.08 14.964h-5.52v1.87h2.134c.106 0 .213.11.213.218s-.107.217-.213.217H27.56v2.44h6.854v20.366H27.56v1.546h.107a1.39 1.39 0 011.387 1.41c0 .76-.614 1.41-1.387 1.41h-.107v1.79h5.52c1.307 0 2.374-1.084 2.374-2.413v-26.44c0-1.33-1.067-2.414-2.374-2.414z" fill="#1D1D1D"/><path d="M29.907 17.025c0-.109-.107-.217-.213-.217H27.56v.434h2.134a.212.212 0 00.213-.217z" fill="#D1ECFB"/><path d="M29.027 43.031a1.39 1.39 0 00-1.387-1.41h-.107v.434h.107c.533 0 .96.434.96.976a.964.964 0 01-.96.977h-.107v.434h.107a1.424 1.424 0 001.387-1.41z" fill="#fff"/><path d="M34.414 19.71H27.56v20.366h6.854V19.709z" fill="#FFFAF9"/><path d="M28.6 43.032a.964.964 0 00-.96-.977h-.107v1.926h.107c.533 0 .96-.434.96-.95z" fill="#1D1D1D"/><path d="M29.08 53.608H17.055v6.237h12.027v-6.237z" fill="#4D4D4D"/><path d="M29.533 54.774H16.6v10.223h12.933V54.774z" fill="#EB5757"/><path d="M29.533 54.774H16.6v.976h12.933v-.976z" fill="#EB5757"/><path d="M29.08 53.608h-6v1.166h6v-1.166z" fill="#1D1D1D"/><path d="M29.533 55.75h-6.454v9.248h6.454V55.75z" fill="#E13A3A"/><path d="M23.08 54.774v.976h6.48v-.976h-6.481z" fill="#EB5757"/><path d="M28.173 57.676a.609.609 0 01-.614.623.609.609 0 01-.613-.623c0-.353.267-.624.613-.624.32 0 .614.271.614.624z" fill="#1D1D1D"/><path d="M23.32 33.188a.941.941 0 00.934-.95.941.941 0 00-.933-.949.941.941 0 00-.934.95c0 .524.418.949.934.949z" fill="#EB5757"/><path d="M23.107 32.862a.508.508 0 01-.266-.081.425.425 0 01-.054-.57l5.227-6.427a.425.425 0 01.293-.136c.107 0 .214.027.294.109l2.64 2.657 7.04-8.46c.133-.163.4-.19.56-.055.16.136.187.407.053.57l-7.333 8.786a.425.425 0 01-.294.136.397.397 0 01-.293-.109l-2.64-2.657-4.907 6.101a.488.488 0 01-.32.136z" fill="#EB5757"/><path d="M38.76 22.937c-.213 0-.4-.19-.4-.407v-2.034h-2c-.213 0-.4-.19-.4-.407 0-.217.187-.407.4-.407h2.4c.214 0 .4.19.4.407v2.44a.414.414 0 01-.4.408z" fill="#EB5757"/><path d="M7.48 36.17H3.72a.356.356 0 01-.347-.352v-4.99c0-.19.16-.352.347-.352h3.786c.187 0 .347.162.347.352v4.99c-.027.19-.187.352-.373.352zm-3.574-.542h3.387v-4.583H3.906v4.583zm8.907.542h-3.76a.356.356 0 01-.347-.352V25.296c0-.19.16-.353.347-.353h3.787c.186 0 .346.163.346.353v10.522c-.026.19-.186.352-.373.352zm-3.573-.542h3.386V25.486H9.24v10.142zm8.906.542h-3.76a.356.356 0 01-.346-.352V19.52c0-.19.16-.353.346-.353h3.787c.187 0 .347.163.347.352v16.326c-.027.163-.187.325-.374.325zm-3.573-.542h3.387V19.709h-3.387v15.919z" fill="#4D4D4D"/></g><defs><clipPath id="clip0"><path fill="#fff" transform="translate(.067 .998)" d="M0 0h61.867v64H0z"/></clipPath></defs></svg>