<svg width="104" height="104" fill="none" xmlns="http://www.w3.org/2000/svg"><g filter="url(#filter0_d)"><circle cx="52" cy="50" r="40" fill="#E82127"/></g><path d="M52.001 70.571l5.436-30.703c5.182 0 6.816.57 7.052 2.9 0 0 3.476-1.302 5.23-3.946-6.842-3.184-13.716-3.327-13.716-3.327l-4.01 4.906H52l-4.01-4.907s-6.875.144-13.715 3.328c1.752 2.643 5.229 3.945 5.229 3.945.237-2.33 1.87-2.9 7.016-2.904L52 70.571z" fill="#fff"/><path d="M52 34.078c5.53-.042 11.86.86 18.34 3.696.866-1.566 1.089-2.258 1.089-2.258-7.084-2.814-13.717-3.777-19.43-3.802-5.712.024-12.345.988-19.427 3.802 0 0 .316.852 1.088 2.258 6.478-2.837 12.81-3.738 18.34-3.696z" fill="#fff"/><defs><filter id="filter0_d" x="0" y="0" width="104" height="104" filterUnits="userSpaceOnUse" color-interpolation-filters="sRGB"><feFlood flood-opacity="0" result="BackgroundImageFix"/><feColorMatrix in="SourceAlpha" values="0 0 0 0 0 0 0 0 0 0 0 0 0 0 0 0 0 0 127 0"/><feOffset dy="2"/><feGaussianBlur stdDeviation="6"/><feColorMatrix values="0 0 0 0 0.0295189 0 0 0 0 0.137798 0 0 0 0 0.187773 0 0 0 0.2 0"/><feBlend mode="multiply" in2="BackgroundImageFix" result="effect1_dropShadow"/><feBlend in="SourceGraphic" in2="effect1_dropShadow" result="shape"/></filter></defs></svg>