<svg width="104" height="104" fill="none" xmlns="http://www.w3.org/2000/svg"><g filter="url(#filter0_d)"><circle cx="52" cy="50" r="40" fill="#fff"/></g><g clip-path="url(#clip0)"><path d="M71.43 50.472c0-1.398-.109-2.804-.342-4.18H52.392v7.922h10.706c-.444 2.555-1.872 4.815-3.962 6.251v5.14h6.388c3.75-3.583 5.906-8.874 5.906-15.133z" fill="#4285F4"/><path d="M52.39 70.571c5.347 0 9.855-1.821 13.14-4.966l-6.387-5.14c-1.778 1.255-4.072 1.965-6.745 1.965-5.171 0-9.556-3.62-11.129-8.488h-6.591v5.299c3.364 6.946 10.218 11.33 17.713 11.33z" fill="#34A853"/><path d="M41.262 53.942a12.764 12.764 0 010-7.876v-5.3h-6.584a21.286 21.286 0 000 18.475l6.584-5.3z" fill="#FBBC04"/><path d="M52.39 37.57c2.827-.046 5.558 1.058 7.605 3.084l5.659-5.874c-3.583-3.492-8.34-5.412-13.263-5.351-7.495 0-14.349 4.384-17.713 11.338l6.584 5.299c1.566-4.876 5.958-8.497 11.129-8.497z" fill="#EA4335"/></g><defs><clipPath id="clip0"><path fill="#fff" transform="translate(32.573 29.429)" d="M0 0h38.857v41.143H0z"/></clipPath><filter id="filter0_d" x="0" y="0" width="104" height="104" filterUnits="userSpaceOnUse" color-interpolation-filters="sRGB"><feFlood flood-opacity="0" result="BackgroundImageFix"/><feColorMatrix in="SourceAlpha" values="0 0 0 0 0 0 0 0 0 0 0 0 0 0 0 0 0 0 127 0"/><feOffset dy="2"/><feGaussianBlur stdDeviation="6"/><feColorMatrix values="0 0 0 0 0.0295189 0 0 0 0 0.137798 0 0 0 0 0.187773 0 0 0 0.2 0"/><feBlend mode="multiply" in2="BackgroundImageFix" result="effect1_dropShadow"/><feBlend in="SourceGraphic" in2="effect1_dropShadow" result="shape"/></filter></defs></svg>