<svg width="42" height="42" fill="none" xmlns="http://www.w3.org/2000/svg"><g clip-path="url(#clip0)"><path d="M0 31.317v.002c.025.933.033 1.87.19 2.797.167.98.405 1.936.86 2.826a9.041 9.041 0 002.526 3.052c.765.596 1.601 1.07 2.527 1.368 1.35.435 2.742.602 4.154.61.882.006 1.763.028 2.644.024 6.403-.027 12.806.046 19.21-.04.85-.01 1.685-.114 2.519-.267a8.535 8.535 0 004.22-2.05c1.408-1.256 2.358-2.792 2.787-4.646.28-1.212.35-2.442.363-3.676v-.246c0-.096-.036-20.965-.04-21.241-.01-.758-.065-1.51-.207-2.256-.173-.908-.417-1.794-.853-2.616a9.084 9.084 0 00-1.748-2.331C38.062 1.58 36.802.842 35.336.45 34.012.098 32.662.02 31.301.02c-.002 0-.007-.014-.008-.021H10.7l-.001.02c-.772.015-1.546.01-2.314.104C7.544.23 6.71.386 5.914.68a8.7 8.7 0 00-3.276 2.15C1.583 3.923.838 5.186.444 6.658c-.352 1.312-.428 2.651-.43 4" fill="#FFFC00"/><path d="M21.227 38c-.102 0-.2-.004-.274-.007-.058.005-.12.007-.18.007-2.143 0-3.577-1.02-4.841-1.92-.907-.644-1.762-1.252-2.764-1.42a8.866 8.866 0 00-1.454-.123c-.851 0-1.525.133-2.016.23-.303.059-.563.11-.765.11-.211 0-.468-.047-.575-.415-.084-.29-.145-.57-.204-.84-.146-.675-.253-1.088-.504-1.127-2.689-.417-4.277-1.032-4.594-1.776a.694.694 0 01-.055-.235.434.434 0 01.36-.453c2.136-.354 4.034-1.489 5.643-3.375 1.247-1.46 1.859-2.856 1.925-3.01a.262.262 0 01.01-.02c.31-.634.371-1.18.183-1.626-.346-.822-1.493-1.188-2.252-1.43a8.035 8.035 0 01-.51-.174c-.673-.268-1.78-.833-1.632-1.612.107-.569.855-.965 1.46-.965.167 0 .316.03.44.089.683.322 1.298.485 1.826.485.657 0 .974-.252 1.05-.323a114.477 114.477 0 00-.064-1.083c-.154-2.467-.347-5.538.434-7.3 2.337-5.27 7.293-5.68 8.756-5.68A370.984 370.984 0 0021.354 4c1.467 0 6.434.41 8.772 5.685.78 1.762.588 4.835.433 7.305l-.007.119c-.021.335-.04.652-.057.96.072.067.363.298.953.321.504-.02 1.082-.182 1.72-.482a1.35 1.35 0 01.563-.112c.224 0 .451.044.641.123l.01.004c.541.193.895.58.903.985.007.377-.272.942-1.645 1.488a8.31 8.31 0 01-.51.174c-.76.242-1.906.608-2.253 1.43-.188.445-.126.992.184 1.625l.01.021c.096.225 2.408 5.53 7.567 6.385a.434.434 0 01.361.453.702.702 0 01-.057.236c-.314.74-1.902 1.355-4.592 1.772-.252.04-.358.45-.504 1.122-.06.277-.121.55-.205.835-.078.269-.252.4-.532.4h-.042c-.182 0-.44-.033-.765-.097a10.01 10.01 0 00-2.016-.215c-.473 0-.962.042-1.455.124-1 .167-1.855.775-2.76 1.418C24.804 36.98 23.37 38 21.227 38z" fill="#fff"/><path d="M21.346 4.847c1.349 0 5.993.364 8.181 5.292.72 1.623.536 4.563.388 6.924-.023.375-.046.738-.065 1.085l-.008.15.1.11c.04.045.414.438 1.247.47l.014.001h.014c.55-.021 1.17-.193 1.845-.51a.885.885 0 01.37-.07c.16 0 .33.03.469.09l.02.008c.354.124.604.359.608.571.002.12-.088.552-1.34 1.049-.122.049-.283.1-.47.16-.815.26-2.047.652-2.461 1.633-.233.552-.17 1.204.19 1.937.148.347 2.474 5.61 7.709 6.477a.234.234 0 01-.021.084c-.09.21-.653.935-4.163 1.48-.549.084-.683.702-.84 1.421-.056.257-.113.517-.192.785-.024.081-.028.086-.115.086h-.041a3.85 3.85 0 01-.666-.086 10.26 10.26 0 00-2.05-.218c-.486 0-.987.043-1.49.127-1.074.18-1.947.8-2.872 1.457-1.242.881-2.526 1.794-4.485 1.794-.085 0-.169-.003-.252-.008h-.022l-.023.001a1.672 1.672 0 01-.145.007c-1.959 0-3.243-.912-4.485-1.794-.925-.657-1.799-1.277-2.873-1.457a9.054 9.054 0 00-1.489-.127c-.87 0-1.552.134-2.05.232-.274.054-.51.1-.666.1-.127 0-.13-.008-.156-.1-.08-.268-.137-.534-.193-.791-.156-.72-.29-1.341-.84-1.426-3.509-.544-4.073-1.27-4.162-1.48a.258.258 0 01-.021-.086c5.234-.866 7.56-6.13 7.709-6.478.36-.732.423-1.384.19-1.938-.415-.98-1.646-1.373-2.46-1.632a7.865 7.865 0 01-.472-.16c-1.057-.42-1.383-.843-1.334-1.099.056-.295.566-.596 1.01-.596.1 0 .188.017.253.047.723.34 1.383.513 1.962.513.91 0 1.314-.425 1.358-.474l.098-.11-.008-.15c-.018-.346-.04-.709-.065-1.083-.147-2.362-.332-5.3.388-6.923 2.18-4.91 6.802-5.288 8.166-5.288l.627-.006.08-.001zm0-.847h-.089l-.62.007c-.799 0-2.398.113-4.115.874a9.166 9.166 0 00-2.625 1.75c-.906.863-1.645 1.929-2.194 3.166-.804 1.812-.614 4.864-.46 7.317v.004l.05.804c-.118.055-.31.112-.591.112-.454 0-.994-.145-1.604-.433a1.43 1.43 0 00-.61-.126c-.364 0-.747.107-1.079.303-.418.247-.688.595-.76.982-.05.255-.047.76.512 1.272.307.282.758.542 1.34.773.153.06.334.118.526.18.667.212 1.676.534 1.939 1.156.133.315.076.73-.17 1.232l-.019.04c-.061.145-.635 1.45-1.811 2.826a10.204 10.204 0 01-2.188 1.945 8.022 8.022 0 01-3.071 1.205.846.846 0 00-.706.883c.008.125.037.249.087.37l.001.001c.172.404.571.747 1.22 1.05.791.37 1.976.68 3.52.924.077.149.158.523.214.78.06.272.12.552.207.85.095.322.339.708.966.708.238 0 .511-.054.828-.116.463-.091 1.097-.216 1.888-.216.44 0 .894.04 1.351.116.882.147 1.643.687 2.523 1.312C17.094 36.965 18.55 38 20.779 38c.06 0 .121-.002.181-.006.074.003.165.006.262.006 2.227 0 3.685-1.035 4.971-1.95l.002-.001c.88-.624 1.64-1.163 2.522-1.31a8.241 8.241 0 011.35-.116c.757 0 1.355.097 1.89.202.348.069.62.102.827.102h.042c.458 0 .795-.253.924-.695.086-.292.147-.565.207-.842.052-.24.136-.626.214-.776 1.545-.244 2.729-.554 3.52-.924.648-.3 1.046-.644 1.219-1.046.052-.12.082-.246.089-.373a.846.846 0 00-.706-.883c-4.812-.797-6.98-5.764-7.07-5.975a.637.637 0 00-.02-.041c-.245-.502-.302-.916-.169-1.232.263-.622 1.271-.943 1.938-1.156a8.38 8.38 0 00.527-.18c.657-.26 1.126-.542 1.436-.863.37-.383.441-.75.437-.99-.011-.58-.453-1.096-1.156-1.349a2.06 2.06 0 00-.783-.15 1.74 1.74 0 00-.729.15c-.563.264-1.067.409-1.5.43a1.352 1.352 0 01-.497-.11l.043-.702.006-.104c.155-2.454.346-5.509-.459-7.322-.551-1.242-1.292-2.31-2.202-3.176a9.188 9.188 0 00-2.634-1.75A10.44 10.44 0 0021.346 4z" fill="#020202"/></g><defs><clipPath id="clip0"><path fill="#fff" d="M0 0h42v42H0z"/></clipPath></defs></svg>