<svg width="104" height="104" fill="none" xmlns="http://www.w3.org/2000/svg"><g filter="url(#filter0_d)"><circle cx="52" cy="50" r="40" fill="#fff"/></g><g clip-path="url(#clip0)"><path d="M69.52 59.844a23.613 23.613 0 01-2.335 4.199c-1.228 1.75-2.233 2.962-3.007 3.634-1.2 1.105-2.487 1.67-3.865 1.703-.989 0-2.181-.282-3.57-.853-1.392-.568-2.672-.85-3.843-.85-1.227 0-2.543.282-3.951.85-1.41.571-2.547.869-3.415.898-1.321.057-2.638-.525-3.952-1.748-.84-.731-1.888-1.986-3.145-3.763-1.349-1.898-2.458-4.099-3.326-6.608-.93-2.71-1.397-5.335-1.397-7.875 0-2.91.629-5.421 1.888-7.525.99-1.69 2.307-3.022 3.955-4a10.636 10.636 0 015.346-1.51c1.049 0 2.425.325 4.135.963 1.705.64 2.8.965 3.28.965.358 0 1.575-.38 3.636-1.136 1.95-.702 3.596-.993 4.944-.878 3.652.294 6.397 1.735 8.222 4.33-3.267 1.98-4.883 4.753-4.85 8.31.029 2.771 1.034 5.077 3.009 6.908a9.89 9.89 0 003.007 1.973c-.242.7-.496 1.37-.767 2.013zM61.141 26.87c0 2.172-.794 4.2-2.375 6.077-1.908 2.232-4.216 3.521-6.719 3.318a6.76 6.76 0 01-.05-.823c0-2.086.907-4.317 2.519-6.141.804-.924 1.827-1.692 3.068-2.305 1.238-.604 2.41-.937 3.511-.995.032.29.046.581.046.87z" fill="#000"/></g><defs><clipPath id="clip0"><path fill="#fff" transform="translate(33.714 26)" d="M0 0h36.571v43.429H0z"/></clipPath><filter id="filter0_d" x="0" y="0" width="104" height="104" filterUnits="userSpaceOnUse" color-interpolation-filters="sRGB"><feFlood flood-opacity="0" result="BackgroundImageFix"/><feColorMatrix in="SourceAlpha" values="0 0 0 0 0 0 0 0 0 0 0 0 0 0 0 0 0 0 127 0"/><feOffset dy="2"/><feGaussianBlur stdDeviation="6"/><feColorMatrix values="0 0 0 0 0.0295189 0 0 0 0 0.137798 0 0 0 0 0.187773 0 0 0 0.2 0"/><feBlend mode="multiply" in2="BackgroundImageFix" result="effect1_dropShadow"/><feBlend in="SourceGraphic" in2="effect1_dropShadow" result="shape"/></filter></defs></svg>