<svg width="104" height="104" fill="none" xmlns="http://www.w3.org/2000/svg"><g filter="url(#filter0_d)"><circle cx="52" cy="50" r="40" fill="#F90"/></g><g clip-path="url(#clip0)"><path d="M66.022 61.371c-15.729 7.486-25.49 1.223-31.74-2.581-.386-.24-1.043.056-.473.71 2.082 2.525 8.904 8.61 17.81 8.61 8.911 0 14.213-4.863 14.876-5.712.658-.84.193-1.305-.473-1.027zm4.418-2.44c-.422-.55-2.568-.652-3.919-.486-1.353.161-3.383.988-3.207 1.484.091.186.276.103 1.205.02.932-.094 3.542-.423 4.086.288.547.716-.832 4.126-1.084 4.676-.244.55.093.692.55.326.45-.366 1.267-1.315 1.814-2.657.544-1.349.876-3.231.555-3.65z" fill="#F90"/><path fill-rule="evenodd" clip-rule="evenodd" d="M55.447 46.096c0 1.965.05 3.603-.943 5.347-.801 1.418-2.07 2.29-3.489 2.29-1.936 0-3.063-1.474-3.063-3.651 0-4.297 3.85-5.078 7.495-5.078v1.093zm5.084 12.29c-.333.297-.815.318-1.191.12-1.674-1.39-1.971-2.035-2.893-3.361-2.766 2.822-4.723 3.666-8.31 3.666-4.241 0-7.545-2.617-7.545-7.857 0-4.092 2.22-6.878 5.374-8.24 2.737-1.205 6.56-1.418 9.481-1.751v-.653c0-1.198.092-2.616-.61-3.652-.617-.928-1.794-1.311-2.83-1.311-1.92 0-3.637.985-4.055 3.027-.085.454-.419.901-.872.922l-4.893-.524c-.411-.093-.865-.426-.752-1.057C42.563 31.787 47.916 30 52.71 30c2.453 0 5.658.652 7.594 2.51 2.454 2.29 2.22 5.347 2.22 8.672v7.857c0 2.362.978 3.397 1.9 4.673.326.454.397 1-.014 1.34a212.915 212.915 0 00-3.865 3.347l-.014-.014" fill="#fff"/><path d="M66.022 61.371c-15.729 7.486-25.49 1.223-31.74-2.581-.386-.24-1.043.056-.473.71 2.082 2.525 8.904 8.61 17.81 8.61 8.911 0 14.213-4.863 14.876-5.712.658-.84.193-1.305-.473-1.027zm4.418-2.44c-.422-.55-2.568-.652-3.919-.486-1.353.161-3.383.988-3.207 1.484.091.186.276.103 1.205.02.932-.094 3.542-.423 4.086.288.547.716-.832 4.126-1.084 4.676-.244.55.093.692.55.326.45-.366 1.267-1.315 1.814-2.657.544-1.349.876-3.231.555-3.65z" fill="#fff"/><path fill-rule="evenodd" clip-rule="evenodd" d="M55.447 46.096c0 1.965.05 3.603-.943 5.347-.801 1.418-2.07 2.29-3.489 2.29-1.936 0-3.063-1.474-3.063-3.651 0-4.297 3.85-5.078 7.495-5.078v1.093zm5.084 12.29c-.333.297-.815.318-1.191.12-1.674-1.39-1.971-2.035-2.893-3.361-2.766 2.822-4.723 3.666-8.31 3.666-4.241 0-7.545-2.617-7.545-7.857 0-4.092 2.22-6.878 5.374-8.24 2.737-1.205 6.56-1.418 9.481-1.751v-.653c0-1.198.092-2.616-.61-3.652-.617-.928-1.794-1.311-2.83-1.311-1.92 0-3.637.985-4.055 3.027-.085.454-.419.901-.872.922l-4.893-.524c-.411-.093-.865-.426-.752-1.057C42.563 31.787 47.916 30 52.71 30c2.453 0 5.658.652 7.594 2.51 2.454 2.29 2.22 5.347 2.22 8.672v7.857c0 2.362.978 3.397 1.9 4.673.326.454.397 1-.014 1.34a212.915 212.915 0 00-3.865 3.347l-.014-.014" fill="#000"/></g><defs><clipPath id="clip0"><path fill="#fff" transform="translate(32.571 30)" d="M0 0h38.857v38.857H0z"/></clipPath><filter id="filter0_d" x="0" y="0" width="104" height="104" filterUnits="userSpaceOnUse" color-interpolation-filters="sRGB"><feFlood flood-opacity="0" result="BackgroundImageFix"/><feColorMatrix in="SourceAlpha" values="0 0 0 0 0 0 0 0 0 0 0 0 0 0 0 0 0 0 127 0"/><feOffset dy="2"/><feGaussianBlur stdDeviation="6"/><feColorMatrix values="0 0 0 0 0.0295189 0 0 0 0 0.137798 0 0 0 0 0.187773 0 0 0 0.2 0"/><feBlend mode="multiply" in2="BackgroundImageFix" result="effect1_dropShadow"/><feBlend in="SourceGraphic" in2="effect1_dropShadow" result="shape"/></filter></defs></svg>