<svg width="60" height="19" fill="none" xmlns="http://www.w3.org/2000/svg"><g clip-path="url(#clip0)" fill="#4D4D4D"><path d="M25 18.585h-4.86L23.18.331h4.86L25 18.585zM42.62.777C41.66.407 40.14 0 38.26 0c-4.8 0-8.18 2.485-8.2 6.039-.04 2.622 2.42 4.078 4.26 4.952 1.88.894 2.519 1.477 2.519 2.273-.02 1.223-1.52 1.787-2.92 1.787-1.94 0-2.98-.291-4.56-.972l-.64-.291-.68 4.098c1.14.504 3.24.951 5.421.971 5.1 0 8.42-2.447 8.46-6.234.019-2.078-1.28-3.67-4.08-4.971-1.7-.836-2.741-1.399-2.741-2.253.02-.777.88-1.573 2.8-1.573 1.58-.039 2.74.33 3.62.699l.44.194.66-3.942zm6.46 11.341c.4-1.049 1.94-5.107 1.94-5.107-.02.039.4-1.068.64-1.748l.339 1.573s.92 4.37 1.12 5.282h-4.04zM55.078.331h-3.76c-1.159 0-2.04.33-2.54 1.514l-7.22 16.74h5.1l1.02-2.739h6.24c.14.641.58 2.739.58 2.739H59L55.079.33zM16.08.33l-4.76 12.448-.52-2.524C9.92 7.34 7.16 4.176 4.08 2.602l4.36 15.964h5.14L21.22.33h-5.14z"/><path d="M6.9.33H-.92L-1 .7c6.1 1.514 10.14 5.166 11.8 9.555l-1.7-8.39C8.82.7 7.96.37 6.9.331z"/></g><defs><clipPath id="clip0"><path fill="#fff" d="M0 0h60v18.857H0z"/></clipPath></defs></svg>